<svg viewBox="0 0 244.727 266.678" xmlns="http://www.w3.org/2000/svg"><path fill="none" pointer-events="none" d="M0 0h244.727v266.678H0z"/><path class="st8" d="M219.735 117.35c-1.305-3.046-2.697-5.482-4.177-7.57-4.263-5.83-9.832-8.615-16.88-8.615a25.81 25.81 0 0 0-3.654.261c-5.482.696-11.138 2.698-16.532 4.612-1.915.696-3.742 1.392-5.656 2.001-3.307 1.044-7.57 2.35-11.225 2.35-.435 0-.87 0-1.305-.088-7.57-.696-11.746-7.744-16.706-15.923-3.48-5.83-7.483-12.442-13.226-17.489l.783-4.438c1.044-5.307 2.089-10.876 3.916-15.4 2.697-6.44 6.787-9.659 13.138-10.355.958-.087 1.915-.174 2.959-.174 3.567 0 7.918.609 13.226 1.914 6.613 1.653 13.921 4.09 20.97 6.439 12.007 4.003 23.319 7.831 31.846 7.831 3.48 0 6.351-.609 8.7-1.914-1.13 20.36-2.523 38.894-6.177 56.557z" fill="#513d69"/><path class="st12" d="M185.626 210.278c2.002-2.698 3.48-5.134 4.525-7.57 3.393-7.657 2.35-14.792-2.958-21.927-3.307-4.35-7.918-8.266-12.269-12.008-1.48-1.305-3.045-2.61-4.438-3.915-3.132-2.785-6.612-6.178-8.353-9.833-3.132-6.787.87-13.922 5.482-22.188 3.306-6.003 7.048-12.703 8.527-20.273 1.392-.435 2.785-.957 4.177-1.48 5.133-1.827 10.528-3.741 15.4-4.35 1.045-.087 2.09-.174 3.046-.174 5.308 0 9.31 2.001 12.53 6.439 2.436 3.306 4.611 8.179 6.526 14.879 1.914 6.613 3.393 14.096 4.872 21.318 3.48 16.967 6.7 33.15 15.227 38.11-19.49 9.746-35.848 17.49-52.294 22.972z" fill="#1cb4c6"/><path class="st10" d="M134.029 260.744c-16.533-10.876-32.195-21.579-45.855-33.586 1.827.26 3.567.348 5.133.348 1.218 0 2.437-.087 3.655-.174 8.266-.957 14.009-5.395 17.489-13.574 2.175-5.047 3.22-10.963 4.264-16.62.348-1.913.696-3.915 1.13-5.742.87-4.176 2.089-8.788 4.438-12.094 4.264-6.265 12.095-6.352 21.927-6.526 6.787-.087 14.444-.174 21.753-2.698l3.394 2.872c4.176 3.567 8.527 7.222 11.485 11.224 4.177 5.569 4.96 10.703 2.35 16.532-1.654 3.829-4.786 8.092-9.659 13.14-4.699 4.959-10.528 10.005-16.097 14.878-12.965 11.312-25.32 22.188-25.407 32.02z" fill="#43f0dc"/><path class="st14" d="M76.601 98.468c-1.131-.957-2.262-1.914-3.393-2.959-4.177-3.567-8.528-7.222-11.486-11.137-4.177-5.569-4.96-10.615-2.35-16.532 1.654-3.829 4.786-8.092 9.659-13.139 4.699-4.96 10.528-10.006 16.097-14.966 12.965-11.398 25.233-22.275 25.407-32.107 16.533 10.876 32.195 21.579 45.856 33.586-1.828-.174-3.568-.348-5.134-.348-1.218 0-2.436.087-3.655.174-8.266.957-13.921 5.395-17.489 13.574-2.175 5.047-3.22 10.876-4.263 16.532-.349 2.001-.697 3.916-1.132 5.83-.87 3.915-2.088 8.788-4.437 12.008-4.264 6.264-12.095 6.351-21.927 6.525-6.787.348-14.444.522-21.753 2.959z" fill="#fc0"/><path class="st11" d="M45.886 161.9c-5.308 0-9.31-2.002-12.53-6.353-2.436-3.306-4.611-8.179-6.526-14.879-1.914-6.525-3.393-14.095-4.872-21.317-3.48-17.055-6.7-33.152-15.227-38.111 19.49-9.833 35.848-17.49 52.294-23.059-2.002 2.698-3.48 5.134-4.525 7.57-3.306 7.57-2.35 14.792 2.958 21.927 3.307 4.438 7.919 8.266 12.27 12.008 1.478 1.305 3.044 2.61 4.437 3.828 3.132 2.872 6.613 6.178 8.266 9.833 3.132 6.874-.87 14.009-5.395 22.275-3.306 6.004-7.048 12.703-8.527 20.273-1.392.522-2.784.958-4.177 1.48-5.22 1.827-10.615 3.741-15.4 4.35-1.045.174-2.089.174-3.046.174z" fill="#ffa000"/><path class="st13" d="M93.394 222.024c-3.567 0-7.918-.609-13.226-1.914-6.612-1.653-13.921-4.09-20.97-6.439-12.007-4.002-23.318-7.831-31.846-7.831-3.48 0-6.351.61-8.7 2.001 1.217-20.447 2.61-38.98 6.177-56.644 1.305 3.045 2.697 5.482 4.177 7.57 4.263 5.83 9.745 8.614 16.88 8.614 1.218 0 2.436-.087 3.741-.261 5.482-.696 11.138-2.697 16.62-4.612a214.012 214.012 0 0 1 5.568-1.914c3.307-1.044 7.57-2.35 11.225-2.35.435 0 .957 0 1.392.088 7.57.696 11.747 7.744 16.706 15.923 3.48 5.83 7.483 12.443 13.226 17.576-.348 1.392-.61 2.872-.87 4.264-1.044 5.394-2.001 10.963-4.003 15.488-2.697 6.439-6.787 9.658-13.138 10.354-.958.087-1.915.087-2.959.087z" fill="#ff682d"/></svg>